<svg xmlns="http://www.w3.org/2000/svg" width="442.2166931152344" height="106.16711183611943"
    viewBox="0 0 336 80.66667344835069" class="css-1j8o68f">
    <defs id="SvgjsDefs6325"></defs>
    <g id="SvgjsG6326" featurekey="symbolFeature-0"
        transform="matrix(1.1111111111111112,0,0,1.1111111111111112,-10,-9.66666645473904)" fill="#6e57e0">
        <polygon xmlns="http://www.w3.org/2000/svg" points="71,48.7 71,18.2 54.8,9 38.7,9 63,22.8 63,36.7 63,53.3 ">
        </polygon>
        <polygon xmlns="http://www.w3.org/2000/svg"
            points="29,66 54.8,81 54.7,81 55.1,81.3 71.7,71.7 79.7,57.8 55.3,72 29,56.8 "></polygon>
        <polygon xmlns="http://www.w3.org/2000/svg"
            points="61.2,57 61.3,57 46.9,65.2 54.8,69.8 81,54.5 81,35.2 73,21.3 73,49.8 "></polygon>
        <polygon xmlns="http://www.w3.org/2000/svg"
            points="61,23.9 34.8,8.7 18.2,18.3 10.2,32.3 35,18 47,25 46.8,25 61,33.2 "></polygon>
        <polygon xmlns="http://www.w3.org/2000/svg"
            points="35.2,20.3 9,35.6 9,54.8 17,68.7 17,40.2 28.8,33.2 28.8,33.2 43.2,24.9 "></polygon>
        <polygon xmlns="http://www.w3.org/2000/svg" points="19,41.3 19,71.8 35.2,81 51.4,81 27,67.2 27,53.3 27,36.7 ">
        </polygon>
    </g>
    <g id="SvgjsG6327" featurekey="textGroupContainer" transform="matrix(1,0,0,1,335,6)" fill="#383737">
        <rect xmlns="http://www.w3.org/2000/svg" y="0" height="1" width="1" opacity="0"></rect>
        <rect xmlns="http://www.w3.org/2000/svg" y="0" x="-235" width="3" height="70"></rect>
    </g>
    <g id="SvgjsG6328" featurekey="nameFeature-0"
        transform="matrix(1.2336538883269905,0,0,1.2336538883269905,116.174192957061,11.663461116730094)"
        fill="#383737">
        <path
            d="M34.6 11.32 c-0.74668 0 -1.12 0.37332 -1.12 1.12 l0 10.88 l-29.76 0 l0 -10.88 c0 -0.74668 -0.37332 -1.12 -1.12 -1.12 s-1.12 0.37332 -1.12 1.12 l0 24 c0 0.74668 0.37332 1.12 1.12 1.12 s1.12 -0.37332 1.12 -1.12 l0 -10.88 l29.76 0 l0 10.88 c0 0.74668 0.37332 1.12 1.12 1.12 s1.12 -0.37332 1.12 -1.12 l0 -24 c0 -0.74668 -0.37332 -1.12 -1.12 -1.12 z M80.76 35.28 l-21.52 -25 l-20.84 25 c-0.16 0.18668 -0.24 0.41336 -0.24 0.68004 c0 0.77332 0.38668 1.16 1.16 1.16 c0.32 0 0.58668 -0.13332 0.8 -0.4 l0 0 l6.32 -7.6 l26.08 0 l6.56 7.6 c0.24 0.26668 0.53332 0.4 0.88 0.4 c0.72 0 1.08 -0.36 1.08 -1.08 c0 -0.29332 -0.09332 -0.54664 -0.28 -0.75996 z M48.32 26.880000000000003 l10.96 -13.16 l11.36 13.16 l-22.32 0 z M116.92 11.120000000000001 c-0.74668 0 -1.12 0.37332 -1.12 1.12 l0 21.76 l-32 -24 l0 26.24 c0 0.72 0.37332 1.08 1.12 1.08 s1.12 -0.36 1.12 -1.08 l0 -21.8 l32 24 l0 -26.2 c0 -0.74668 -0.37332 -1.12 -1.12 -1.12 z M163.32 35.28 l-21.52 -25 l-20.84 25 c-0.16 0.18668 -0.24 0.41336 -0.24 0.68004 c0 0.77332 0.38668 1.16 1.16 1.16 c0.32 0 0.58668 -0.13332 0.8 -0.4 l0 0 l6.32 -7.6 l26.08 0 l6.56 7.6 c0.24 0.26668 0.53332 0.4 0.88 0.4 c0.72 0 1.08 -0.36 1.08 -1.08 c0 -0.29332 -0.09332 -0.54664 -0.28 -0.75996 z M130.88 26.880000000000003 l10.96 -13.16 l11.36 13.16 l-22.32 0 z">
        </path>
    </g>
</svg>